# xmcd
#
# Track frame offsets:
#	150
#	20563
#	39115
#	56284
#	74495
#	93738
#	110763
#	129861
#	149135
#	162727
#	180722
#	202883
#
# Disc length: 2871 seconds
#
# Revision: 2
# Processed by: cddbd v1.5.2PL0 Copyright (c) Steve Scherf et al.
# Submitted via: EasyCDDAExtractor 15.3.0.1
#
DISCID=af0b350c
DTITLE=David DeMaria - Caminos De Ida Y Vuelta
DYEAR=2006
DGENRE=Latin
TTITLE0=Despertare Cuando Te Vayas
TTITLE1=Caminos De Ida Y Vuelta
TTITLE2=Te Deseo Lo Mejor
TTITLE3=A Media Voz
TTITLE4=Dulces Princesas
TTITLE5=Aquella Noche
TTITLE6=Las Cositas Del Amor
TTITLE7=Miradas Cruzadas
TTITLE8=Fuiste Tu
TTITLE9=Tu Huella
TTITLE10=Mi Amiga Invisible
TTITLE11=Loco Enamorao
EXTD=
EXTT0=
EXTT1=
EXTT2=
EXTT3=
EXTT4=
EXTT5=
EXTT6=
EXTT7=
EXTT8=
EXTT9=
EXTT10=
EXTT11=
PLAYORDER=
